<svg width="50" height="51" viewBox="0 0 50 51" fill="none" xmlns="http://www.w3.org/2000/svg">
<path d="M5.64799 3.93861L46.2761 44.5636C46.5691 44.857 46.7335 45.2548 46.7332 45.6694C46.7329 46.084 46.5679 46.4816 46.2746 46.7745C46.1293 46.9196 45.9568 47.0347 45.7671 47.1131C45.5774 47.1915 45.3741 47.2318 45.1688 47.2317C44.7541 47.2314 44.3566 47.0664 44.0636 46.773L38.1792 40.8886L37.9949 40.9167C37.7842 40.9531 37.5711 40.974 37.3574 40.9792H12.3574C10.6998 40.9792 9.11005 40.3208 7.93794 39.1487C6.76584 37.9766 6.10736 36.3868 6.10736 34.7292V19.1074C6.10736 16.3167 7.94486 13.9855 10.4667 13.1792L3.43861 6.14799C3.15399 5.8533 2.9965 5.4586 3.00006 5.04892C3.00362 4.63924 3.16795 4.24735 3.45765 3.95765C3.74735 3.66795 4.13924 3.50362 4.54892 3.50006C4.95861 3.4965 5.3533 3.65399 5.64799 3.93861ZM15.4824 25.3574C15.4824 27.8438 16.4701 30.2283 18.2282 31.9865C19.9864 33.7446 22.371 34.7324 24.8574 34.7324C26.8792 34.7324 28.7417 34.0761 30.273 32.9855L28.0105 30.723C27.0586 31.297 25.969 31.6027 24.8574 31.6074C23.1998 31.6074 21.61 30.9489 20.4379 29.7768C19.2658 28.6047 18.6074 27.015 18.6074 25.3574C18.6074 24.2011 18.9449 23.1324 19.4917 22.2042L17.2292 19.9417C16.0999 21.5224 15.4895 23.4148 15.4824 25.3574ZM24.8574 15.9824C27.3438 15.9824 29.7283 16.9701 31.4865 18.7282C33.2446 20.4864 34.2324 22.871 34.2324 25.3574C34.2324 26.1917 34.0886 26.9855 33.8886 27.7542L43.1605 37.0292C43.4417 36.3167 43.6105 35.5449 43.6105 34.7355V19.1074C43.6105 17.4498 42.952 15.86 41.7799 14.6879C40.6078 13.5158 39.0181 12.8574 37.3605 12.8574H35.2011L33.373 9.19486C32.9828 8.41628 32.3835 7.76178 31.6422 7.30475C30.9009 6.84772 30.047 6.60623 29.1761 6.60736H20.5386C19.6676 6.60739 18.8139 6.85009 18.0731 7.30823C17.3324 7.76637 16.7339 8.42184 16.3449 9.20111L16.0074 9.87611L22.4605 16.3261C23.2324 16.123 24.023 15.9824 24.8574 15.9824ZM31.0636 24.9324C30.9614 23.4328 30.3194 22.021 29.2566 20.9581C28.1938 19.8953 26.7819 19.2534 25.2824 19.1511L31.0636 24.9324Z" fill="black"/>
</svg>
