<svg width="41" height="41" viewBox="0 0 41 41" fill="none" xmlns="http://www.w3.org/2000/svg">
<g id="vuesax/outline/arrow-left">
<g id="arrow-left">
<g id="Vector">
<mask id="path-1-inside-1_1324_2168" fill="white">
<path d="M25.5 34.95C25.1834 34.95 24.8667 34.8333 24.6167 34.5833L13.75 23.7166C11.9834 21.95 11.9834 19.05 13.75 17.2833L24.6167 6.41664C25.1 5.9333 25.9 5.9333 26.3834 6.41664C26.8667 6.89997 26.8667 7.69997 26.3834 8.18331L15.5167 19.05C14.7167 19.85 14.7167 21.15 15.5167 21.95L26.3834 32.8166C26.8667 33.3 26.8667 34.1 26.3834 34.5833C26.1334 34.8166 25.8167 34.95 25.5 34.95Z"/>
</mask>
<path d="M25.5 34.95C25.1834 34.95 24.8667 34.8333 24.6167 34.5833L13.75 23.7166C11.9834 21.95 11.9834 19.05 13.75 17.2833L24.6167 6.41664C25.1 5.9333 25.9 5.9333 26.3834 6.41664C26.8667 6.89997 26.8667 7.69997 26.3834 8.18331L15.5167 19.05C14.7167 19.85 14.7167 21.15 15.5167 21.95L26.3834 32.8166C26.8667 33.3 26.8667 34.1 26.3834 34.5833C26.1334 34.8166 25.8167 34.95 25.5 34.95Z" fill="#292D32"/>
<path d="M24.6167 34.5833L36.6375 22.5625L24.6167 34.5833ZM13.75 23.7166L1.72923 35.7375L1.72923 35.7375L13.75 23.7166ZM13.75 17.2833L1.72923 5.26249L1.72923 5.26249L13.75 17.2833ZM24.6167 6.41664L36.6375 18.4375L36.6375 18.4375L24.6167 6.41664ZM26.3834 8.18331L14.3626 -3.83751L26.3834 8.18331ZM15.5167 19.05L27.5375 31.0708L15.5167 19.05ZM15.5167 21.95L3.4959 33.9708H3.4959L15.5167 21.95ZM26.3834 32.8166L38.4042 20.7958V20.7958L26.3834 32.8166ZM26.3834 34.5833L37.9828 47.0112L38.197 46.8113L38.4042 46.6041L26.3834 34.5833ZM25.5 17.95C29.4487 17.95 33.5314 19.4563 36.6375 22.5625L12.5959 46.6041C16.202 50.2103 20.918 51.95 25.5 51.95V17.95ZM36.6375 22.5625L25.7709 11.6958L1.72923 35.7375L12.5959 46.6041L36.6375 22.5625ZM25.7709 11.6958C30.6431 16.5681 30.6431 24.4319 25.7709 29.3041L1.72923 5.26249C-6.67635 13.6681 -6.67635 27.3319 1.72923 35.7375L25.7709 11.6958ZM25.7709 29.3041L36.6375 18.4375L12.5959 -5.60418L1.72923 5.26249L25.7709 29.3041ZM36.6375 18.4375C30.482 24.593 20.5181 24.593 14.3626 18.4375L38.4042 -5.60418C31.282 -12.7264 19.7181 -12.7264 12.5959 -5.60418L36.6375 18.4375ZM14.3626 18.4375C8.20699 12.2819 8.20699 2.31807 14.3626 -3.83751L38.4042 20.2041C45.5264 13.0819 45.5264 1.51807 38.4042 -5.60418L14.3626 18.4375ZM14.3626 -3.83751L3.4959 7.02916L27.5375 31.0708L38.4042 20.2041L14.3626 -3.83751ZM3.4959 7.02916C-3.94301 14.4681 -3.94301 26.5319 3.4959 33.9708L27.5375 9.92916C33.3764 15.7681 33.3764 25.2319 27.5375 31.0708L3.4959 7.02916ZM3.4959 33.9708L14.3626 44.8375L38.4042 20.7958L27.5375 9.92916L3.4959 33.9708ZM14.3626 44.8375C8.20699 38.6819 8.20699 28.7181 14.3626 22.5625L38.4042 46.6041C45.5264 39.4819 45.5264 27.9181 38.4042 20.7958L14.3626 44.8375ZM14.784 22.1554C17.3292 19.7798 21.0515 17.95 25.5 17.95V51.95C30.582 51.95 34.9375 49.8535 37.9828 47.0112L14.784 22.1554Z" fill="#343434" mask="url(#path-1-inside-1_1324_2168)"/>
</g>
</g>
</g>
</svg>
