<svg width="252" height="67" viewBox="0 0 252 67" fill="none" xmlns="http://www.w3.org/2000/svg">
<g opacity="0.2">
<path d="M87.3011 25.7786H77.0111C74.7221 25.7786 73.5783 24.6348 73.5797 22.3472V21.209C73.5797 18.9214 74.7235 17.7776 77.0111 17.7776H94.796V9.76608H74.7179C70.7153 9.76608 67.8082 10.6712 65.9966 12.4814C64.185 14.2916 63.2799 17.2008 63.2813 21.209V22.9247C63.2813 26.9273 64.1864 29.8344 65.9966 31.646C67.8068 33.4576 70.7139 34.3606 74.7179 34.355H87.8723V39.5021C87.8723 40.3799 87.6147 41.0757 87.0995 41.5895C86.5843 42.1033 85.8885 42.3609 85.0121 42.3623C81.3133 42.3623 74.2433 42.0767 63.8021 41.5055V49.2251C67.9573 49.5667 71.9795 49.8334 75.8687 50.0252L81.1292 50.2541C83.302 50.3297 85.3614 50.3675 87.3074 50.3675C91.0412 50.3675 93.7859 49.4911 95.5415 47.7383C97.2971 45.9855 98.1742 43.2401 98.1728 39.5021V36.644C98.1728 32.9088 97.2957 30.1634 95.5415 28.4078C93.7873 26.6522 91.0405 25.7758 87.3011 25.7786Z" fill="#101010"/>
<path d="M122.755 18.9158H111.319C108.458 18.9158 106.218 19.7257 104.599 21.3455C102.979 22.9653 102.169 25.2053 102.169 28.0655V41.7891C102.169 44.3805 102.95 46.4581 104.513 48.0219C106.075 49.5857 108.153 50.3669 110.747 50.3655C116.732 50.3655 123.404 49.9847 130.763 49.2231V42.0831C123.483 42.6543 117.953 42.9399 114.173 42.9399C113.908 42.9465 113.645 42.8993 113.399 42.8011C113.153 42.7028 112.929 42.5557 112.742 42.3686C112.555 42.1814 112.407 41.9582 112.309 41.7124C112.21 41.4665 112.163 41.2033 112.169 40.9386V38.6391H131.909V28.0655C131.909 25.2053 131.099 22.9653 129.477 21.3455C127.856 19.7257 125.615 18.9158 122.755 18.9158ZM121.898 31.499H112.175V28.349C112.175 26.8244 112.938 26.0621 114.464 26.0621H119.612C121.135 26.0621 121.897 26.8244 121.898 28.349V31.499Z" fill="#101010"/>
<path d="M157.08 18.9158H145.631C142.77 18.9158 140.53 19.7257 138.911 21.3455C137.291 22.9653 136.481 25.2053 136.481 28.0655V41.7891C136.481 44.3805 137.262 46.4581 138.825 48.0219C140.387 49.5857 142.465 50.3669 145.059 50.3655C151.044 50.3655 157.716 49.9847 165.075 49.2231V42.0831C157.795 42.6543 152.265 42.9399 148.485 42.9399C148.22 42.9465 147.957 42.8993 147.711 42.801C147.465 42.7028 147.242 42.5556 147.055 42.3685C146.868 42.1813 146.72 41.958 146.622 41.7122C146.524 41.4664 146.477 41.2032 146.483 40.9386V38.6391H166.213V28.0655C166.213 25.2053 165.402 22.9653 163.781 21.3455C162.16 19.7257 159.926 18.9158 157.08 18.9158ZM156.21 31.499H146.49V28.349C146.49 26.8244 147.252 26.0621 148.776 26.0621H153.93C155.454 26.0621 156.217 26.8244 156.217 28.349L156.21 31.499Z" fill="#101010"/>
<path d="M194.24 30.9236L182.803 9.76608H171.938V49.7963H182.23V27.4943L190.237 41.7911H198.244L206.249 27.4943V49.7963H216.544V9.76608H205.678L194.24 30.9236Z" fill="#101010"/>
<path d="M252 38.6391V28.0655C252 25.2053 251.19 22.9653 249.57 21.3455C247.95 19.7257 245.71 18.9158 242.85 18.9158H231.42C228.561 18.9158 226.321 19.7257 224.7 21.3455C223.079 22.9653 222.268 25.2053 222.268 28.0655V41.7891C222.268 44.3805 223.049 46.4581 224.612 48.0219C226.174 49.5857 228.252 50.3669 230.847 50.3655C236.832 50.3655 243.503 49.9847 250.862 49.2231V42.0831C243.582 42.6543 238.052 42.9399 234.272 42.9399C234.007 42.9465 233.744 42.8993 233.498 42.801C233.252 42.7028 233.029 42.5556 232.842 42.3685C232.655 42.1813 232.507 41.958 232.409 41.7122C232.311 41.4664 232.264 41.2032 232.27 40.9386V38.6391H252ZM232.26 28.349C232.26 26.8244 233.022 26.0621 234.547 26.0621H239.694C241.218 26.0621 241.981 26.8244 241.981 28.349V31.499H232.26V28.349Z" fill="#101010"/>
<path d="M17.7699 29.721C18.6099 30.2145 19.3827 30.3006 20.1891 29.8281C22.8057 28.3035 22.9863 24.5697 20.754 22.4697C19.7607 21.5352 18.5994 21.4827 17.5725 22.3395C16.4091 23.3076 15.8925 24.5802 15.8589 26.0628C15.8568 27.6189 16.3293 28.8789 17.7699 29.721Z" fill="#101010"/>
<path d="M36.8195 29.6094C39.4361 28.0848 39.6167 24.3447 37.3823 22.2447C36.3911 21.3102 35.2298 21.2577 34.2029 22.1145C33.0395 23.0826 32.5229 24.3552 32.4893 25.8378C32.4893 27.4002 32.9597 28.6602 34.4003 29.5023C35.2424 29.9895 36.011 30.0756 36.8195 29.6094Z" fill="#101010"/>
<path d="M55.2531 17.6749C55.0941 16.4679 54.8206 15.2789 54.4362 14.1237C54.0519 12.8931 53.1468 9.99304 50.7255 7.45414C48.1131 4.72414 44.9505 3.66154 42.6426 2.89714C41.4015 2.47713 39.8139 2.08233 39.648 2.04033C38.178 1.68123 36.6807 1.39353 35.1897 1.13943C32.1447 0.616532 29.0661 0.0894315 25.9875 0.00753142C23.0874 -0.0680687 20.16 0.444332 17.2557 0.700532C14.1225 0.977733 11.2959 2.21673 8.67297 3.81484C5.92807 5.4951 3.75144 7.96145 2.42546 10.8939C2.36666 11.0157 2.31206 11.1375 2.25746 11.2593C1.66377 12.3606 1.19736 13.526 0.867256 14.7328C0.814756 14.926 0.768556 15.1234 0.726556 15.3166C0.195255 17.7883 0.0713547 20.3692 0.0314547 22.9123C-0.0252454 27.001 -0.0315454 31.1023 0.241455 35.1826C0.241455 35.2456 0.241455 35.3023 0.254055 35.3632C0.531255 39.0886 1.80596 42.4801 4.66406 45.0232C4.82156 45.166 4.98536 45.3046 5.15546 45.4432C6.37647 46.4215 7.71729 47.2402 9.14547 47.8792C9.39126 47.9873 9.66164 48.0273 9.92821 47.9949C10.1948 47.9624 10.4477 47.8588 10.6604 47.6949C10.8731 47.531 11.0377 47.3128 11.137 47.0633C11.2362 46.8138 11.2664 46.5421 11.2245 46.2769V46.2307C11.0145 44.7754 11.7537 43.948 13.2384 43.0954C13.4062 42.9941 13.5542 42.8632 13.6752 42.709C13.8294 42.5167 13.9328 42.2888 13.9758 42.0461C14.0189 41.8035 14.0003 41.5539 13.9216 41.3203C13.843 41.0867 13.7069 40.8766 13.5259 40.7094C13.3448 40.5422 13.1246 40.4232 12.8856 40.3633C12.8289 40.3486 12.7743 40.336 12.7218 40.3192C10.3068 39.6577 8.86197 37.9546 8.38737 35.6383C7.79937 32.7781 7.34786 29.8402 7.30796 26.9275C7.26596 23.9413 7.68387 20.9299 8.09757 17.9605C8.26477 16.5715 8.75516 15.2411 9.5294 14.0759C10.3036 12.9107 11.3402 11.9432 12.5559 11.2509C15.1074 9.73474 17.997 9.28954 20.8341 9.15094L21.1008 9.14044C25.1748 8.97874 29.2698 9.35044 33.3543 9.47014C36.1637 9.51894 38.9422 10.065 41.5611 11.0829C44.3772 12.2064 46.1811 14.2077 46.5423 17.0701C46.9917 20.596 47.0085 24.1849 47.0694 27.7486C47.1198 30.3904 46.8594 33.0112 45.9291 35.5459C45.5832 36.5369 45.0836 37.4674 44.4486 38.3032L44.1231 38.6161C41.6829 40.3654 38.7933 41.0668 35.9457 41.4658L35.7189 41.4973C35.4525 41.5302 35.1998 41.6344 34.9876 41.7988C34.7754 41.9632 34.6114 42.1818 34.5129 42.4316C34.4145 42.6814 34.3852 42.9531 34.4282 43.2181C34.4711 43.4831 34.5848 43.7316 34.7571 43.9375C35.7462 45.1156 36.7395 46.2916 36.9999 47.2072C37.103 47.5715 37.1567 47.9479 37.1595 48.3265C37.1562 48.5513 37.2034 48.7739 37.2975 48.978C37.3916 49.1822 37.5303 49.3626 37.7034 49.5061C37.8765 49.6495 38.0795 49.7523 38.2976 49.8069C38.5156 49.8616 38.7431 49.8666 38.9634 49.8217C39.5094 49.7062 40.0554 49.5949 40.5993 49.492C43.3902 48.967 45.8493 47.6839 48.1089 46.0795C48.9904 45.5696 49.7816 44.9175 50.4504 44.1496C50.5428 44.0446 50.631 43.9396 50.7171 43.8262C51.9225 42.2743 52.9914 40.4788 53.5815 38.6224C54.3543 36.2179 54.7302 33.658 55.0179 31.1359C55.3308 28.3618 55.6206 25.5751 55.8159 22.7884C55.8233 22.6961 55.8233 22.6034 55.8159 22.5112C55.65 20.8984 55.4526 19.2856 55.2531 17.6749Z" fill="#101010"/>
<path d="M28.7381 42.2554C28.735 42.1939 28.735 42.1322 28.7381 42.0706C28.7843 40.4305 30.2774 39.0865 30.8381 37.5283C31.3232 36.2032 30.6281 35.1448 29.0783 34.435C28.2866 34.0717 27.2114 34.4539 26.5814 35.5039C25.7813 36.8374 25.1114 38.2549 24.3659 39.6178C24.3127 39.7009 24.236 39.7662 24.1455 39.8054C24.055 39.8446 23.9548 39.8559 23.8578 39.8379C23.7609 39.8198 23.6715 39.7733 23.6011 39.7041C23.5308 39.635 23.4826 39.5465 23.4629 39.4498C23.1374 37.9399 22.8497 36.5707 22.5179 35.2099C22.2806 34.2313 21.2579 33.4795 20.2772 33.469C19.2104 33.4543 18.257 34.0654 18.0596 35.149C17.9085 36.1446 17.8656 37.1535 17.9315 38.1583C17.9798 39.4897 18.1415 40.8211 18.1898 42.1483C18.1898 42.4234 18.2024 42.6985 18.1898 42.9715C18.1772 43.6015 17.7698 44.4667 17.2889 44.7439C16.1549 45.3928 15.5942 46.027 15.7496 47.1379C15.8315 47.7175 16.1276 48.862 16.4426 50.0779C16.8899 51.7936 17.375 53.6479 17.3393 54.2002C17.1566 57.0898 16.7324 59.9626 16.4867 62.8501C16.3859 64.0135 16.4321 64.3012 16.4468 65.5676C16.4468 65.8511 16.7072 66.9704 16.9886 66.9452C17.0625 66.9405 17.1344 66.919 17.1986 66.8821C18.173 66.2689 19.1369 65.6222 20.0735 64.9627C21.9068 63.6502 23.6645 62.2327 25.5566 61.0063C26.9972 60.076 27.7343 58.8727 27.8855 57.2557C27.9309 56.7147 28.1154 56.1946 28.421 55.7458C28.9502 54.9898 29.5039 54.252 30.0821 53.5324C30.7121 52.747 31.4114 51.928 31.9049 51.0523C32.4488 50.0863 32.7449 49.0531 32.4236 47.9149C31.9847 46.3105 28.7969 43.7485 28.7381 42.2554Z" fill="#101010"/>
</g>
</svg>
