<svg width="281" height="75" viewBox="0 0 281 75" fill="none" xmlns="http://www.w3.org/2000/svg">
<g opacity="0.5">
<path d="M97.348 28.7452H85.8738C83.3214 28.7452 82.0459 27.4697 82.0475 24.9189V23.6497C82.0475 21.0988 83.3229 19.8234 85.8738 19.8234H105.705V10.89H83.3167C78.8535 10.89 75.6118 11.8992 73.5917 13.9177C71.5717 15.9362 70.5624 19.1802 70.564 23.6497V25.5628C70.564 30.0261 71.5732 33.2677 73.5917 35.2878C75.6103 37.3079 78.8519 38.3148 83.3167 38.3085H97.9849V44.048C97.9849 45.0268 97.6976 45.8027 97.1232 46.3756C96.5487 46.9485 95.7728 47.2358 94.7955 47.2373C90.6711 47.2373 82.7875 46.9188 71.1447 46.2819V54.8899C75.7781 55.2708 80.2632 55.5682 84.5999 55.7821L90.4658 56.0373C92.8886 56.1216 95.185 56.1638 97.355 56.1638C101.518 56.1638 104.579 55.1865 106.537 53.232C108.494 51.2775 109.472 48.2161 109.471 44.048V40.861C109.471 36.6959 108.493 33.6346 106.537 31.6769C104.581 29.7193 101.518 28.742 97.348 28.7452Z" fill="#FCFCFC"/>
<path d="M136.882 21.0927H124.129C120.94 21.0927 118.442 21.9958 116.636 23.802C114.83 25.6082 113.927 28.106 113.927 31.2954V46.5982C113.927 49.4878 114.798 51.8045 116.54 53.5482C118.282 55.292 120.6 56.1631 123.492 56.1615C130.166 56.1615 137.606 55.7369 145.811 54.8877V46.926C137.693 47.5629 131.527 47.8814 127.312 47.8814C127.017 47.8888 126.723 47.8361 126.449 47.7266C126.175 47.6171 125.925 47.453 125.716 47.2443C125.508 47.0357 125.343 46.7867 125.233 46.5126C125.124 46.2385 125.071 45.945 125.078 45.6498V43.0857H147.089V31.2954C147.089 28.106 146.186 25.6082 144.378 23.802C142.57 21.9958 140.071 21.0927 136.882 21.0927ZM135.927 35.124H125.085V31.6115C125.085 29.9114 125.936 29.0614 127.637 29.0614H133.377C135.075 29.0614 135.925 29.9114 135.927 31.6115V35.124Z" fill="#FCFCFC"/>
<path d="M175.157 21.0927H162.39C159.201 21.0927 156.703 21.9958 154.897 23.802C153.09 25.6082 152.187 28.106 152.187 31.2954V46.5982C152.187 49.4878 153.058 51.8045 154.801 53.5482C156.543 55.292 158.86 56.1631 161.753 56.1615C168.427 56.1615 175.866 55.7369 184.071 54.8877V46.926C175.954 47.5629 169.787 47.8814 165.572 47.8814C165.277 47.8888 164.984 47.8361 164.71 47.7266C164.435 47.617 164.187 47.4529 163.978 47.2442C163.769 47.0355 163.605 46.7865 163.495 46.5124C163.386 46.2384 163.333 45.9449 163.341 45.6498V43.0857H185.341V31.2954C185.341 28.106 184.437 25.6082 182.629 23.802C180.821 21.9958 178.33 21.0927 175.157 21.0927ZM174.187 35.124H163.348V31.6115C163.348 29.9114 164.198 29.0614 165.898 29.0614H171.644C173.344 29.0614 174.194 29.9114 174.194 31.6115L174.187 35.124Z" fill="#FCFCFC"/>
<path d="M216.592 34.4823L203.84 10.89H191.724V55.5268H203.2V30.6583L212.129 46.6004H221.058L229.984 30.6583V55.5268H241.463V10.89H229.347L216.592 34.4823Z" fill="#FCFCFC"/>
<path d="M281 43.0857V31.2954C281 28.106 280.097 25.6082 278.29 23.802C276.484 21.9958 273.986 21.0927 270.797 21.0927H258.051C254.864 21.0927 252.366 21.9958 250.558 23.802C248.75 25.6082 247.846 28.106 247.846 31.2954V46.5982C247.846 49.4878 248.718 51.8045 250.46 53.5482C252.202 55.292 254.519 56.1631 257.412 56.1615C264.086 56.1615 271.525 55.7369 279.731 54.8877V46.926C271.613 47.5629 265.446 47.8814 261.231 47.8814C260.936 47.8888 260.643 47.8361 260.369 47.7266C260.095 47.617 259.846 47.4529 259.637 47.2442C259.428 47.0355 259.264 46.7865 259.155 46.5124C259.045 46.2384 258.992 45.9449 259 45.6498V43.0857H281ZM258.988 31.6115C258.988 29.9114 259.838 29.0614 261.538 29.0614H267.278C268.978 29.0614 269.828 29.9114 269.828 31.6115V35.124H258.988V31.6115Z" fill="#FCFCFC"/>
<path d="M19.815 33.1412C20.7517 33.6915 21.6134 33.7875 22.5126 33.2607C25.4303 31.5606 25.6317 27.3971 23.1425 25.0555C22.0349 24.0134 20.74 23.9549 19.5949 24.9103C18.2976 25.9898 17.7216 27.4088 17.6841 29.062C17.6817 30.7972 18.2086 32.2022 19.815 33.1412Z" fill="#FCFCFC"/>
<path d="M41.0565 33.0168C43.9743 31.3168 44.1756 27.1463 41.6841 24.8046C40.5788 23.7626 39.2839 23.704 38.1388 24.6594C36.8415 25.7389 36.2655 27.158 36.228 28.8112C36.228 30.5534 36.7526 31.9584 38.3589 32.8974C39.298 33.4407 40.155 33.5367 41.0565 33.0168Z" fill="#FCFCFC"/>
<path d="M61.6116 19.7088C61.4342 18.363 61.1292 17.0371 60.7006 15.7491C60.2721 14.3769 59.2629 11.143 56.5629 8.31195C53.6499 5.26778 50.1233 4.0829 47.5498 3.23053C46.1659 2.7622 44.3956 2.32197 44.2106 2.27513C42.5715 1.87471 40.9019 1.5539 39.2393 1.27056C35.8439 0.687482 32.411 0.0997232 28.9781 0.00839813C25.7442 -0.0759019 22.48 0.495465 19.2414 0.781148C15.7477 1.09025 12.5958 2.47183 9.67103 4.25384C6.61026 6.12746 4.18315 8.87764 2.70458 12.1476C2.63901 12.2834 2.57812 12.4192 2.51724 12.5551C1.85523 13.7831 1.33516 15.0825 0.967058 16.4282C0.908516 16.6436 0.857 16.8637 0.810166 17.0792C0.217724 19.8353 0.0795661 22.7132 0.0350744 25.549C-0.0281506 30.1082 -0.0351756 34.6815 0.269241 39.2313C0.269241 39.3016 0.269241 39.3648 0.283291 39.4327C0.592391 43.5868 2.01378 47.3686 5.20079 50.2044C5.37642 50.3636 5.55907 50.5182 5.74874 50.6727C7.11026 51.7637 8.60538 52.6765 10.1979 53.389C10.472 53.5096 10.7735 53.5542 11.0707 53.518C11.368 53.4819 11.65 53.3663 11.8872 53.1835C12.1243 53.0008 12.3079 52.7575 12.4186 52.4792C12.5293 52.201 12.563 51.8981 12.5162 51.6024V51.5508C12.282 49.9281 13.1063 49.0054 14.7618 48.0547C14.9489 47.9418 15.114 47.7958 15.2489 47.6239C15.4208 47.4095 15.5361 47.1553 15.5841 46.8847C15.6322 46.6141 15.6114 46.3358 15.5237 46.0753C15.436 45.8149 15.2843 45.5807 15.0824 45.3942C14.8805 45.2077 14.635 45.075 14.3684 45.0082C14.3052 44.9918 14.2443 44.9778 14.1858 44.959C11.4929 44.2214 9.88178 42.3223 9.35257 39.7395C8.6969 36.5501 8.19344 33.2741 8.14895 30.0262C8.10212 26.6964 8.56811 23.3384 9.02942 20.0273C9.21587 18.4785 9.76269 16.995 10.626 15.6957C11.4894 14.3965 12.6452 13.3176 14.0008 12.5457C16.8459 10.855 20.068 10.3586 23.2316 10.204L23.529 10.1923C28.0719 10.012 32.6381 10.4265 37.1926 10.56C40.3253 10.6144 43.4236 11.2232 46.3439 12.3584C49.4841 13.6111 51.4956 15.8428 51.8983 19.0344C52.3994 22.9661 52.4182 26.968 52.4861 30.9418C52.5423 33.8876 52.2519 36.81 51.2146 39.6364C50.8289 40.7415 50.2718 41.7791 49.5637 42.711L49.2007 43.06C46.4797 45.0106 43.2576 45.7927 40.0823 46.2376L39.8294 46.2727C39.5323 46.3094 39.2505 46.4256 39.0139 46.6089C38.7772 46.7923 38.5944 47.036 38.4846 47.3146C38.3748 47.5931 38.3422 47.896 38.3901 48.1915C38.438 48.4871 38.5647 48.7642 38.7569 48.9937C39.8598 50.3074 40.9674 51.6187 41.2578 52.6397C41.3728 53.0459 41.4326 53.4657 41.4358 53.8878C41.4321 54.1385 41.4847 54.3867 41.5896 54.6143C41.6946 54.842 41.8493 55.0432 42.0423 55.2031C42.2352 55.3631 42.4616 55.4777 42.7048 55.5387C42.9479 55.5996 43.2016 55.6052 43.4472 55.5551C44.0561 55.4263 44.6649 55.3022 45.2714 55.1874C48.3835 54.602 51.1256 53.1713 53.6452 51.3822C54.6282 50.8137 55.5104 50.0866 56.2562 49.2302C56.3592 49.1132 56.4575 48.9961 56.5536 48.8696C57.8977 47.1391 59.0896 45.137 59.7476 43.067C60.6093 40.3858 61.0285 37.5313 61.3493 34.7189C61.6982 31.6256 62.0214 28.5182 62.2391 25.4108C62.2473 25.3079 62.2473 25.2046 62.2391 25.1017C62.0541 23.3033 61.834 21.5049 61.6116 19.7088Z" fill="#FCFCFC"/>
<path d="M32.0458 47.1181C32.0423 47.0495 32.0423 46.9807 32.0458 46.9121C32.0973 45.0832 33.7622 43.5846 34.3875 41.847C34.9284 40.3695 34.1533 39.1892 32.4252 38.3978C31.5423 37.9927 30.3434 38.4188 29.6409 39.5897C28.7487 41.0766 28.0017 42.6573 27.1704 44.177C27.1112 44.2696 27.0256 44.3425 26.9246 44.3862C26.8237 44.4299 26.712 44.4425 26.6039 44.4224C26.4958 44.4023 26.3961 44.3504 26.3177 44.2733C26.2392 44.1962 26.1855 44.0974 26.1635 43.9897C25.8006 42.306 25.4798 40.7792 25.1098 39.2618C24.8452 38.1706 23.7048 37.3323 22.6112 37.3206C21.4217 37.3042 20.3585 37.9856 20.1384 39.1939C19.97 40.3041 19.9221 41.4291 19.9956 42.5495C20.0494 44.0342 20.2297 45.5188 20.2836 46.9987C20.2836 47.3055 20.2977 47.6122 20.2836 47.9166C20.2696 48.6191 19.8153 49.5839 19.279 49.893C18.0145 50.6166 17.3893 51.3238 17.5626 52.5625C17.6539 53.2088 17.9841 54.485 18.3353 55.8408C18.8341 57.754 19.375 59.8217 19.3352 60.4375C19.1315 63.6597 18.6585 66.8631 18.3845 70.0829C18.2721 71.3801 18.3236 71.701 18.34 73.113C18.34 73.4291 18.6304 74.6772 18.9442 74.6491C19.0266 74.644 19.1067 74.6199 19.1783 74.5789C20.2649 73.8951 21.3397 73.1739 22.3841 72.4386C24.4284 70.975 26.3883 69.3944 28.4982 68.0269C30.1046 66.9895 30.9265 65.6477 31.0951 63.8447C31.1457 63.2414 31.3514 62.6614 31.6922 62.161C32.2823 61.318 32.8997 60.4953 33.5445 59.6929C34.247 58.8171 35.0267 57.9039 35.577 56.9274C36.1835 55.8502 36.5137 54.6981 36.1554 53.4289C35.666 51.6399 32.1114 48.7831 32.0458 47.1181Z" fill="#FCFCFC"/>
</g>
</svg>
