<svg width="71" height="78" viewBox="0 0 71 78" fill="none" xmlns="http://www.w3.org/2000/svg">
<g id="vuesax/outline/sms">
<g id="sms">
<path id="Vector" d="M50.2918 69.0625H20.7084C9.9105 69.0625 3.698 62.2375 3.698 50.375V27.625C3.698 15.7625 9.9105 8.9375 20.7084 8.9375H50.2918C61.0897 8.9375 67.3022 15.7625 67.3022 27.625V50.375C67.3022 62.2375 61.0897 69.0625 50.2918 69.0625ZM20.7084 13.8125C12.2476 13.8125 8.1355 18.33 8.1355 27.625V50.375C8.1355 59.67 12.2476 64.1875 20.7084 64.1875H50.2918C58.7526 64.1875 62.8647 59.67 62.8647 50.375V27.625C62.8647 18.33 58.7526 13.8125 50.2918 13.8125H20.7084Z" fill="#292D32"/>
<path id="Vector_2" d="M35.4994 41.8274C33.0144 41.8274 30.4998 40.9824 28.5769 39.2599L19.3173 31.1349C18.3706 30.2899 18.1931 28.7624 18.9623 27.7224C19.7315 26.6824 21.1219 26.4874 22.0686 27.3324L31.3281 35.4574C33.5765 37.4399 37.3927 37.4399 39.641 35.4574L48.9006 27.3324C49.8473 26.4874 51.2673 26.6499 52.0069 27.7224C52.7761 28.7624 52.6282 30.3224 51.6519 31.1349L42.3923 39.2599C40.499 40.9824 37.9844 41.8274 35.4994 41.8274Z" fill="#292D32"/>
</g>
</g>
</svg>
